<?xml version="1.0" encoding="iso-8859-1"?>
<!-- Generator: Adobe Illustrator 19.1.0, SVG Export Plug-In . SVG Version: 6.00 Build 0)  -->
<svg xmlns="http://www.w3.org/2000/svg" xmlns:xlink="http://www.w3.org/1999/xlink" version="1.1" id="Capa_1" x="0px" y="0px" viewBox="0 0 54.014 54.014" style="enable-background:new 0 0 54.014 54.014;" xml:space="preserve" width="512px" height="512px">
<g id="anchor">
	<g>
		<path d="M47.459,29.299l-11.355,6.559l0.993,1.721l8.617-4.978l-0.764,2.204c-1.256,4.423-6.354,12.702-16.877,13.201v-22h8v-2h-8    v-6c3.368-0.484,6-3.496,6-7c0-3.842-3.16-7-7-7s-7,3.158-7,7c0,3.504,2.632,6.517,6,7v6h-8v2h8v22    c-10.522-0.499-15.696-8.779-16.974-13.269l-0.771-2.12l8.589,4.962l0.993-1.721L6.555,29.299L0,40.66l1.721,0.994l4.773-8.272    L7.21,35.35c1.439,5.062,7.47,14.657,19.863,14.657c12.393,0,18.35-9.595,19.771-14.603l0.692-1.995l4.757,8.245l1.721-0.994    L47.459,29.299z M22.073,11.007c0-2.74,2.262-5,5-5c2.738,0,5,2.26,5,5c0,2.74-2.262,5-5,5    C24.335,16.007,22.073,13.747,22.073,11.007z" fill="#FFFFFF"/>
	</g>
</g>
<g>
</g>
<g>
</g>
<g>
</g>
<g>
</g>
<g>
</g>
<g>
</g>
<g>
</g>
<g>
</g>
<g>
</g>
<g>
</g>
<g>
</g>
<g>
</g>
<g>
</g>
<g>
</g>
<g>
</g>
</svg>
