<?xml version="1.0" encoding="iso-8859-1"?>
<!-- Generator: Adobe Illustrator 19.0.0, SVG Export Plug-In . SVG Version: 6.00 Build 0)  -->
<svg xmlns="http://www.w3.org/2000/svg" xmlns:xlink="http://www.w3.org/1999/xlink" version="1.1" id="Capa_1" x="0px" y="0px" viewBox="0 0 512 512" style="enable-background:new 0 0 512 512;" xml:space="preserve" width="512px" height="512px">
<g>
	<g>
		<g>
			<path d="M481.782,37.351l-7.121-7.121C445.673,1.243,402.269-7.84,364.081,7.092c-3.857,1.508-5.762,5.858-4.254,9.716     c1.509,3.858,5.857,5.765,9.717,4.254c32.639-12.761,69.738-4.998,94.51,19.774l7.121,7.121     C487.829,64.61,497,86.751,497,110.302c0,23.551-9.171,45.692-25.825,62.345l-62.347,62.345l-60.604-60.603l39.855-39.854     c12.595,7.789,29.375,6.226,40.294-4.689c12.74-12.74,12.74-33.47,0-46.211c-6.172-6.172-14.378-9.571-23.106-9.571     c-8.728,0-16.934,3.399-23.104,9.571c-6.173,6.172-9.572,14.378-9.572,23.105c0,6.171,1.699,12.081,4.876,17.194l-39.849,39.848     l-52.072-52.072c-2.279-2.279-3.534-5.308-3.534-8.531s1.255-6.252,3.534-8.531l53.814-53.814     c2.228-2.227,4.589-4.351,7.021-6.317c3.222-2.603,3.723-7.325,1.12-10.547c-2.603-3.222-7.324-3.724-10.548-1.12     c-2.841,2.295-5.6,4.777-8.2,7.377l-53.814,53.815c-5.112,5.111-7.928,11.907-7.928,19.137s2.815,14.026,7.927,19.137     l122.623,122.621L122.928,461.802c0.741-3.856,1.119-7.812,1.119-11.825c0-16.566-6.452-32.142-18.167-43.856     c-11.714-11.715-27.29-18.166-43.857-18.166c-6.201,0-12.261,0.903-18.033,2.648l204.087-332.17     c2.168-3.529,1.065-8.148-2.464-10.316c-3.53-2.169-8.148-1.065-10.316,2.464L14.172,410.482     c-0.02,0.032-0.039,0.063-0.058,0.095C4.974,421.652,0,435.433,0,449.978c0,16.566,6.452,32.142,18.167,43.856     C29.882,505.548,45.457,512,62.024,512c14.681,0,28.583-5.065,39.71-14.371c0.14-0.096,0.278-0.198,0.414-0.305l311.24-245.77     c0.146-0.112,0.289-0.23,0.429-0.355c0.137-0.122,0.269-0.248,0.395-0.377l67.571-67.569     C501.269,163.767,512,137.859,512,110.302S501.269,56.837,481.782,37.351z M392.77,94.242c3.338-3.338,7.777-5.177,12.498-5.177     c4.722,0,9.161,1.839,12.499,5.177c6.893,6.892,6.893,18.107,0,24.998c-6.892,6.892-18.106,6.891-24.998,0     c-3.339-3.338-5.178-7.777-5.178-12.499C387.591,102.02,389.43,97.581,392.77,94.242z M95.274,483.228     C86.393,492.109,74.584,497,62.024,497s-24.369-4.892-33.251-13.773C19.892,474.346,15,462.538,15,449.978     s4.892-24.369,13.773-33.25c8.882-8.881,20.69-13.773,33.251-13.773c12.561,0,24.369,4.891,33.25,13.773     c8.882,8.881,13.773,20.689,13.773,33.25C109.047,462.538,104.156,474.346,95.274,483.228z" fill="#FFFFFF"/>
			<path d="M62.024,417.302c-8.729,0-16.934,3.399-23.106,9.571c-12.741,12.74-12.741,33.47,0,46.21     c6.371,6.371,14.737,9.556,23.106,9.555c8.367-0.001,16.736-3.186,23.105-9.555c6.172-6.172,9.571-14.378,9.571-23.106     c0-8.728-3.399-16.934-9.571-23.105C78.958,420.701,70.752,417.302,62.024,417.302z M74.523,462.477     c-6.893,6.891-18.106,6.891-24.999,0c-6.892-6.892-6.892-18.106,0-24.998c3.339-3.338,7.778-5.177,12.5-5.177     c4.721,0,9.16,1.839,12.499,5.177c3.339,3.339,5.178,7.778,5.178,12.499C79.701,454.699,77.862,459.138,74.523,462.477z" fill="#FFFFFF"/>
		</g>
	</g>
</g>
<g>
</g>
<g>
</g>
<g>
</g>
<g>
</g>
<g>
</g>
<g>
</g>
<g>
</g>
<g>
</g>
<g>
</g>
<g>
</g>
<g>
</g>
<g>
</g>
<g>
</g>
<g>
</g>
<g>
</g>
</svg>
