<svg id="broderie" xmlns="http://www.w3.org/2000/svg" width="146.88" height="300" viewBox="0 0 146.88 300">
  <metadata><?xpacket begin="﻿" id="W5M0MpCehiHzreSzNTczkc9d"?>
<x:xmpmeta xmlns:x="adobe:ns:meta/" x:xmptk="Adobe XMP Core 5.6-c138 79.159824, 2016/09/14-01:09:01        ">
   <rdf:RDF xmlns:rdf="http://www.w3.org/1999/02/22-rdf-syntax-ns#">
      <rdf:Description rdf:about=""/>
   </rdf:RDF>
</x:xmpmeta>
                                                                                                    
                                                                                                    
                                                                                                    
                                                                                                    
                                                                                                    
                                                                                                    
                                                                                                    
                                                                                                    
                                                                                                    
                                                                                                    
                                                                                                    
                                                                                                    
                                                                                                    
                                                                                                    
                                                                                                    
                                                                                                    
                                                                                                    
                                                                                                    
                                                                                                    
                                                                                                    
                           
<?xpacket end="w"?></metadata>
<defs>
    <style>
      .cls-1, .cls-2 {
        fill: none;
        stroke: #fff;
        stroke-linecap: round;
        stroke-linejoin: round;
        stroke-width: 1px;
      }

      .cls-1 {
        fill-rule: evenodd;
      }
    </style>
  </defs>
  <g id="Groupe_3" data-name="Groupe 3">
    <path class="cls-1" d="M4102,1099a11.51,11.51,0,1,1-12,11.5A11.757,11.757,0,0,1,4102,1099Z" transform="translate(-4024.56 -1009.5)"/>
    <path id="Ellipse_5_copie" data-name="Ellipse 5 copie" class="cls-1" d="M4103,1196a11.51,11.51,0,1,1-12,11.5A11.757,11.757,0,0,1,4103,1196Z" transform="translate(-4024.56 -1009.5)"/>
  </g>
  <g id="Groupe_4" data-name="Groupe 4">
    <circle class="cls-2" cx="33.94" cy="157" r="7.5"/>
    <circle id="Ellipse_6_copie" data-name="Ellipse 6 copie" class="cls-2" cx="38.94" cy="121" r="7.5"/>
    <circle id="Ellipse_6_copie_2" data-name="Ellipse 6 copie 2" class="cls-2" cx="114.94" cy="131" r="7.5"/>
    <circle id="Ellipse_6_copie_3" data-name="Ellipse 6 copie 3" class="cls-2" cx="116.94" cy="166" r="7.5"/>
  </g>
  <g id="Groupe_1" data-name="Groupe 1">
    <circle class="cls-2" cx="76.94" cy="122" r="5.5"/>
    <circle id="Ellipse_3_copie" data-name="Ellipse 3 copie" class="cls-2" cx="87.94" cy="127" r="5.5"/>
    <circle id="Ellipse_3_copie_2" data-name="Ellipse 3 copie 2" class="cls-2" cx="92.94" cy="137" r="5.5"/>
    <circle id="Ellipse_3_copie_3" data-name="Ellipse 3 copie 3" class="cls-2" cx="94.94" cy="149" r="5.5"/>
    <circle id="Ellipse_3_copie_4" data-name="Ellipse 3 copie 4" class="cls-2" cx="93.94" cy="160" r="5.5"/>
    <circle id="Ellipse_3_copie_5" data-name="Ellipse 3 copie 5" class="cls-2" cx="88.94" cy="170" r="5.5"/>
    <circle id="Ellipse_3_copie_6" data-name="Ellipse 3 copie 6" class="cls-2" cx="78.94" cy="176" r="5.5"/>
    <circle id="Ellipse_3_copie_7" data-name="Ellipse 3 copie 7" class="cls-2" cx="66.94" cy="174" r="5.5"/>
    <circle id="Ellipse_3_copie_8" data-name="Ellipse 3 copie 8" class="cls-2" cx="59.94" cy="165" r="5.5"/>
    <circle id="Ellipse_3_copie_9" data-name="Ellipse 3 copie 9" class="cls-2" cx="56.94" cy="154" r="5.5"/>
    <circle id="Ellipse_3_copie_10" data-name="Ellipse 3 copie 10" class="cls-2" cx="56.94" cy="142" r="5.5"/>
    <circle id="Ellipse_3_copie_11" data-name="Ellipse 3 copie 11" class="cls-2" cx="59.94" cy="132" r="5.5"/>
    <circle id="Ellipse_3_copie_12" data-name="Ellipse 3 copie 12" class="cls-2" cx="66.94" cy="126" r="5.5"/>
  </g>
  <g id="Groupe_5" data-name="Groupe 5">
    <circle class="cls-2" cx="53.94" cy="109" r="6.94"/>
    <circle id="Ellipse_7_copie" data-name="Ellipse 7 copie" class="cls-2" cx="100.94" cy="113" r="6.94"/>
    <circle id="Ellipse_7_copie_2" data-name="Ellipse 7 copie 2" class="cls-2" cx="118.94" cy="149" r="6.94"/>
    <circle id="Ellipse_7_copie_3" data-name="Ellipse 7 copie 3" class="cls-2" cx="103.94" cy="184" r="6.94"/>
    <circle id="Ellipse_7_copie_4" data-name="Ellipse 7 copie 4" class="cls-2" cx="56.94" cy="189" r="6.94"/>
    <circle id="Ellipse_7_copie_5" data-name="Ellipse 7 copie 5" class="cls-2" cx="34.94" cy="138" r="6.94"/>
    <circle id="Ellipse_7_copie_6" data-name="Ellipse 7 copie 6" class="cls-2" cx="39.94" cy="175" r="6.94"/>
  </g>
  <g id="Groupe_6" data-name="Groupe 6">
    <circle class="cls-2" cx="74.94" cy="63" r="25.97"/>
    <circle id="Ellipse_8_copie" data-name="Ellipse 8 copie" class="cls-2" cx="75.94" cy="236" r="25.97"/>
  </g>
  <g id="Groupe_2" data-name="Groupe 2">
    <path id="Rectangle_1_copie" data-name="Rectangle 1 copie" class="cls-1" d="M4119.36,1112.97l-1.21,12.62-10.35,7.18,0.92-12.71Z" transform="translate(-4024.56 -1009.5)"/>
    <path id="Rectangle_1_copie_2" data-name="Rectangle 1 copie 2" class="cls-1" d="M4137.66,1128.71l-6.98,10.58-12.51,1.49,6.77-10.8Z" transform="translate(-4024.56 -1009.5)"/>
    <path id="Rectangle_1_copie_3" data-name="Rectangle 1 copie 3" class="cls-1" d="M4143.07,1150.56l-11.11,6.08-11.76-4.53,11.03-6.38Z" transform="translate(-4024.56 -1009.5)"/>
    <path id="Rectangle_1_copie_4" data-name="Rectangle 1 copie 4" class="cls-1" d="M4143.89,1167.3l-12.24,3.26-10.34-7.19,12.23-3.58Z" transform="translate(-4024.56 -1009.5)"/>
    <path id="Rectangle_1_copie_5" data-name="Rectangle 1 copie 5" class="cls-1" d="M4139.35,1185.25l-12.66-.24-7.96-9.77,12.74-.06Z" transform="translate(-4024.56 -1009.5)"/>
    <path id="Rectangle_1_copie_6" data-name="Rectangle 1 copie 6" class="cls-1" d="M4119.63,1205.74l-9.49-8.39,0.28-12.6,9.74,8.21Z" transform="translate(-4024.56 -1009.5)"/>
    <path id="Rectangle_1_copie_7" data-name="Rectangle 1 copie 7" class="cls-1" d="M4089.12,1206.47l-1.02-12.91,8.76-9.02,1.32,12.96Z" transform="translate(-4024.56 -1009.5)"/>
    <path id="Rectangle_1_copie_8" data-name="Rectangle 1 copie 8" class="cls-1" d="M4068.67,1193.38l6-11.17,12.32-2.61-5.76,11.36Z" transform="translate(-4024.56 -1009.5)"/>
    <path id="Rectangle_1_copie_9" data-name="Rectangle 1 copie 9" class="cls-1" d="M4059.95,1176.1l9.24-8.67,12.52,1.45-9.08,8.93Z" transform="translate(-4024.56 -1009.5)"/>
    <path id="Rectangle_1_copie_10" data-name="Rectangle 1 copie 10" class="cls-1" d="M4057.42,1157.14l11.66-4.96,11.25,5.66-11.6,5.27Z" transform="translate(-4024.56 -1009.5)"/>
    <path id="Rectangle_1_copie_11" data-name="Rectangle 1 copie 11" class="cls-1" d="M4059.17,1138.54l12.63-1.02,8.88,8.93-12.66,1.33Z" transform="translate(-4024.56 -1009.5)"/>
    <path id="Rectangle_1_copie_12" data-name="Rectangle 1 copie 12" class="cls-1" d="M4067.69,1122.78l12.43,2.44,6.13,11.01-12.55-2.16Z" transform="translate(-4024.56 -1009.5)"/>
    <path id="Rectangle_1_copie_13" data-name="Rectangle 1 copie 13" class="cls-1" d="M4084.63,1111.36l10.06,7.7,0.61,12.59-10.29-7.51Z" transform="translate(-4024.56 -1009.5)"/>
  </g>
  <path class="cls-1" d="M4100.5,1137.38c7.8,0,14.12,9.23,14.12,20.62s-6.32,20.62-14.12,20.62-14.12-9.23-14.12-20.62S4092.7,1137.38,4100.5,1137.38Z" transform="translate(-4024.56 -1009.5)"/>
  <path class="cls-1" d="M4100,1010l71,150-71,149-74.99-149.14Z" transform="translate(-4024.56 -1009.5)"/>
</svg>
