<?xml version="1.0" encoding="iso-8859-1"?>
<!-- Generator: Adobe Illustrator 19.0.0, SVG Export Plug-In . SVG Version: 6.00 Build 0)  -->
<svg xmlns="http://www.w3.org/2000/svg" xmlns:xlink="http://www.w3.org/1999/xlink" version="1.1" id="Layer_1" x="0px" y="0px" viewBox="0 0 511.996 511.996" style="enable-background:new 0 0 511.996 511.996;" xml:space="preserve" width="512px" height="512px">
<g>
	<g>
		<g>
			<path d="M277.665,130.723c-3.762-2.408-8.761-1.312-11.168,2.449c-2.408,3.762-1.311,8.762,2.449,11.169     c6.958,4.454,11.113,12.037,11.113,20.283c0,7.266-3.237,14.072-8.881,18.671c-3.461,2.821-3.981,7.913-1.161,11.375     c1.598,1.961,3.926,2.978,6.273,2.978c1.795,0,3.602-0.595,5.101-1.818c9.43-7.684,14.838-19.059,14.838-31.206     C296.229,150.838,289.289,138.165,277.665,130.723z" fill="#FFFFFF"/>
			<path d="M478.321,40.173c-8.577,0-15.756,2.542-17.486,3.207L289.097,98.616c-9.964-5.017-21.202-7.86-33.098-7.86     c-11.897,0-23.133,2.844-33.098,7.86L51.163,43.38c-1.729-0.664-8.908-3.207-17.485-3.207C23.553,40.173,0,44.224,0,81.748     v162.833c0,37.523,23.554,41.576,33.68,41.577h0.004c8.574,0,15.749-2.54,17.479-3.206l89.048-28.642L72.113,420.768     c-1.185,2.894-0.593,6.212,1.518,8.518c2.111,2.309,5.363,3.193,8.351,2.268l58.828-18.175l29.224,54.195     c1.415,2.625,4.155,4.247,7.115,4.247c0.143,0,0.288-0.004,0.431-0.012c3.122-0.165,5.869-2.118,7.053-5.012l64.432-157.493     l64.432,157.493c1.185,2.893,3.931,4.847,7.053,5.012c0.144,0.008,0.289,0.012,0.431,0.012c2.959,0,5.698-1.622,7.115-4.247     l29.224-54.195l58.826,18.175c2.986,0.921,6.24,0.041,8.351-2.267c2.111-2.308,2.702-5.626,1.518-8.519l-50.834-124.263     c-1.69-4.132-6.406-6.114-10.544-4.422c-4.133,1.69-6.112,6.411-4.422,10.544l44.357,108.425l-46.589-14.394l-28.131-68.767     c-1.689-4.132-6.408-6.112-10.544-4.422c-4.133,1.69-6.112,6.411-4.422,10.544l28.723,70.212     c0.038,0.093,0.092,0.174,0.133,0.265l-21.758,40.349l-65.438-159.951c-0.004-0.01-0.006-0.022-0.011-0.031l-0.132-0.317     l-19.908-48.662c0.198,0.054,0.399,0.1,0.598,0.153c0.337,0.089,0.677,0.176,1.018,0.26c0.818,0.204,1.641,0.395,2.466,0.57     c0.234,0.05,0.465,0.107,0.699,0.154c0.996,0.203,1.997,0.376,3.002,0.538c0.348,0.056,0.697,0.108,1.048,0.159     c0.904,0.131,1.812,0.249,2.722,0.347c0.169,0.018,0.337,0.043,0.508,0.059c1.07,0.108,2.146,0.184,3.224,0.246     c0.289,0.016,0.578,0.03,0.867,0.043c1.115,0.051,2.231,0.085,3.35,0.085c1.123,0,2.242-0.034,3.36-0.085     c0.267-0.012,0.535-0.024,0.801-0.039c1.07-0.06,2.139-0.138,3.202-0.245c0.225-0.023,0.447-0.052,0.672-0.077     c0.878-0.096,1.752-0.208,2.623-0.334c0.307-0.044,0.616-0.087,0.922-0.136c0.994-0.157,1.985-0.334,2.97-0.531     c0.316-0.064,0.628-0.134,0.943-0.202c0.779-0.167,1.555-0.347,2.328-0.539c0.299-0.074,0.598-0.144,0.896-0.222     c0.965-0.252,1.924-0.527,2.877-0.819c0.3-0.092,0.595-0.189,0.893-0.284c0.813-0.26,1.621-0.534,2.425-0.823     c0.209-0.075,0.419-0.146,0.627-0.222c0.981-0.362,1.953-0.749,2.919-1.153c0.213-0.089,0.426-0.182,0.638-0.274     c0.926-0.398,1.846-0.812,2.756-1.248c0.064-0.03,0.127-0.058,0.19-0.089c1.017-0.49,2.021-1.009,3.016-1.547     c0.097-0.052,0.192-0.106,0.288-0.158c0.396-0.217,0.793-0.427,1.186-0.651l43.168,13.885l14.948,36.538     c1.689,4.132,6.41,6.119,10.544,4.422c4.133-1.69,6.112-6.411,4.422-10.544l-9.797-23.946l105.017,33.779     c1.728,0.664,8.907,3.206,17.484,3.206c9.187,0,17.072-2.992,22.803-8.654c7.218-7.131,10.879-18.208,10.879-32.923V81.748     C512,44.224,488.447,40.173,478.321,40.173z M45.974,267.637c-0.189,0.06-0.375,0.128-0.558,0.203     c-0.054,0.023-5.484,2.15-11.732,2.15H33.68c-4.788,0-17.511-0.002-17.511-25.408V81.748c0-25.404,12.72-25.404,17.509-25.404     c6.22,0,11.714,2.141,11.739,2.151c0.183,0.074,0.37,0.142,0.557,0.203l160.118,51.499c-0.637,0.585-1.247,1.195-1.863,1.801     c-0.17,0.168-0.346,0.329-0.515,0.498c-0.558,0.561-1.097,1.138-1.636,1.716c-0.319,0.341-0.641,0.677-0.954,1.024     c-0.428,0.477-0.842,0.964-1.256,1.45c-0.412,0.482-0.824,0.964-1.224,1.456c-0.318,0.392-0.625,0.791-0.935,1.189     c-0.484,0.621-0.961,1.247-1.424,1.883c-0.219,0.301-0.432,0.605-0.647,0.908c-0.54,0.765-1.067,1.539-1.578,2.326     c-0.13,0.202-0.26,0.402-0.388,0.605c-0.582,0.914-1.144,1.84-1.686,2.781c-0.055,0.095-0.11,0.19-0.165,0.286     c-5.511,9.65-8.918,20.647-9.568,32.372c-0.004,0.083-0.014,0.165-0.019,0.247c-0.067,1.287-0.104,2.582-0.104,3.886     c0,1.259,0.032,2.514,0.096,3.762c0.015,0.302,0.049,0.598,0.067,0.899c0.059,0.95,0.122,1.898,0.217,2.841     c0.023,0.226,0.059,0.45,0.084,0.675c0.112,1.019,0.234,2.034,0.388,3.042c0.01,0.064,0.023,0.126,0.033,0.19     c2.406,15.537,9.676,29.797,20.768,40.844L45.974,267.637z M240.323,287.972l-64.177,156.87l-21.788-40.407     c0.031-0.071,0.074-0.134,0.103-0.207l28.723-70.212c1.69-4.133-0.288-8.853-4.421-10.544c-4.133-1.69-8.853,0.289-10.544,4.422     l-28.141,68.788l-46.521,14.372l66.717-163.08l56.173-17.65L240.323,287.972z M296.725,205.457     c-0.592,0.59-1.198,1.165-1.814,1.73c-0.165,0.15-0.333,0.296-0.5,0.445c-0.849,0.759-1.725,1.489-2.617,2.197     c-0.443,0.35-0.88,0.708-1.335,1.047c-0.377,0.281-0.768,0.547-1.151,0.819c-0.539,0.382-1.081,0.759-1.635,1.124     c-0.53,0.35-1.063,0.697-1.605,1.031c-0.091,0.055-0.18,0.112-0.271,0.167c-1.477,0.895-2.998,1.722-4.558,2.483     c-0.195,0.095-0.391,0.188-0.588,0.28c-0.598,0.285-1.203,0.557-1.813,0.821c-0.194,0.084-0.387,0.171-0.582,0.253     c-0.752,0.316-1.513,0.617-2.282,0.901c-0.218,0.08-0.438,0.153-0.656,0.231c-0.568,0.203-1.141,0.397-1.717,0.582     c-0.298,0.095-0.595,0.189-0.894,0.279c-0.583,0.177-1.172,0.343-1.762,0.502c-0.226,0.06-0.45,0.127-0.677,0.185     c-0.764,0.195-1.537,0.371-2.313,0.535c-0.303,0.064-0.606,0.122-0.91,0.181c-0.565,0.11-1.133,0.211-1.703,0.305     c-0.284,0.046-0.567,0.096-0.852,0.138c-0.81,0.12-1.622,0.226-2.443,0.312c-0.205,0.022-0.412,0.036-0.618,0.055     c-0.679,0.064-1.36,0.116-2.046,0.156c-0.253,0.015-0.507,0.029-0.76,0.041c-0.871,0.039-1.745,0.067-2.626,0.067     c-0.877,0-1.75-0.027-2.617-0.066c-0.241-0.011-0.482-0.024-0.722-0.038c-0.754-0.043-1.503-0.1-2.248-0.171     c-0.126-0.012-0.252-0.019-0.378-0.032c-0.819-0.085-1.633-0.193-2.442-0.312c-0.279-0.041-0.557-0.085-0.836-0.13     c-0.633-0.102-1.261-0.215-1.886-0.337c-0.213-0.042-0.428-0.079-0.64-0.123c-0.796-0.166-1.584-0.349-2.367-0.548     c-0.233-0.058-0.465-0.123-0.696-0.184c-0.654-0.175-1.304-0.358-1.949-0.554c-0.171-0.053-0.345-0.102-0.516-0.156     c-0.832-0.262-1.658-0.54-2.474-0.839c-0.051-0.018-0.101-0.039-0.151-0.057c-0.817-0.302-1.626-0.621-2.424-0.958     c-0.05-0.02-0.099-0.041-0.15-0.063c-3.214-1.366-6.273-3.025-9.159-4.926c-0.569-0.374-1.126-0.762-1.68-1.155     c-0.372-0.264-0.749-0.52-1.114-0.792c-0.547-0.406-1.073-0.832-1.602-1.256c-0.797-0.639-1.578-1.297-2.339-1.976     c-0.176-0.157-0.355-0.312-0.528-0.471c-0.611-0.56-1.212-1.13-1.798-1.714c-0.051-0.051-0.1-0.101-0.151-0.152     c-5.123-5.145-9.28-11.25-12.183-18.017c-0.053-0.124-0.108-0.247-0.161-0.372c-0.302-0.718-0.586-1.446-0.86-2.177     c-0.103-0.279-0.203-0.561-0.303-0.842c-0.237-0.667-0.47-1.337-0.682-2.015c-0.128-0.411-0.241-0.828-0.361-1.242     c-0.259-0.895-0.497-1.799-0.714-2.711c-0.156-0.665-0.314-1.33-0.447-2.003c-0.087-0.436-0.158-0.878-0.236-1.317     c-0.117-0.674-0.227-1.347-0.321-2.028c-0.058-0.422-0.112-0.844-0.162-1.269c-0.086-0.747-0.155-1.497-0.212-2.25     c-0.028-0.36-0.061-0.719-0.082-1.081c-0.065-1.117-0.106-2.238-0.106-3.365c0-0.868,0.027-1.73,0.066-2.589     c0.011-0.249,0.023-0.499,0.038-0.748c0.042-0.735,0.098-1.467,0.167-2.195c0.034-0.355,0.076-0.708,0.116-1.061     c0.057-0.503,0.122-1.005,0.192-1.504c0.063-0.439,0.127-0.875,0.201-1.312c0.044-0.269,0.096-0.538,0.144-0.806     c0.179-0.987,0.378-1.969,0.608-2.943c0.018-0.077,0.034-0.154,0.054-0.231c1.323-5.514,3.448-10.783,6.281-15.641     c0.008-0.013,0.015-0.027,0.024-0.041c0.301-0.513,0.609-1.022,0.925-1.526c0.074-0.117,0.151-0.234,0.225-0.351     c0.47-0.741,0.961-1.468,1.465-2.186c0.212-0.302,0.424-0.605,0.643-0.902c0.223-0.306,0.452-0.608,0.681-0.91     c0.348-0.456,0.703-0.908,1.064-1.354c0.124-0.153,0.244-0.309,0.369-0.461c0.518-0.626,1.052-1.239,1.596-1.842     c0.113-0.126,0.227-0.249,0.342-0.374c1.18-1.286,2.415-2.522,3.707-3.698c0.015-0.014,0.03-0.027,0.045-0.041     c2.018-1.833,4.169-3.524,6.431-5.059c0.044-0.03,0.087-0.06,0.132-0.089c9.199-6.206,20.276-9.832,32.183-9.832     c11.911-0.001,22.986,3.626,32.186,9.831c0.044,0.029,0.087,0.06,0.132,0.089c2.263,1.536,4.413,3.226,6.431,5.059     c0.015,0.014,0.031,0.027,0.046,0.041c1.291,1.175,2.526,2.411,3.706,3.698c0.114,0.125,0.229,0.249,0.342,0.374     c0.544,0.604,1.078,1.216,1.596,1.842c0.125,0.151,0.245,0.307,0.369,0.46c0.362,0.446,0.717,0.899,1.066,1.356     c0.23,0.301,0.456,0.603,0.679,0.908c0.219,0.299,0.431,0.604,0.645,0.907c0.501,0.715,0.989,1.438,1.457,2.174     c0.078,0.121,0.156,0.24,0.233,0.362c0.315,0.503,0.624,1.011,0.924,1.524c0.008,0.014,0.015,0.027,0.024,0.041     c2.834,4.858,4.959,10.127,6.281,15.641c0.018,0.077,0.036,0.154,0.054,0.231c0.23,0.973,0.429,1.955,0.608,2.943     c0.049,0.268,0.099,0.537,0.144,0.806c0.072,0.436,0.137,0.873,0.199,1.312c0.07,0.499,0.135,1,0.192,1.504     c0.041,0.354,0.083,0.706,0.116,1.061c0.07,0.728,0.125,1.46,0.167,2.195c0.015,0.249,0.027,0.498,0.038,0.748     c0.039,0.859,0.066,1.72,0.066,2.589c0,1.128-0.041,2.249-0.106,3.365c-0.02,0.362-0.055,0.72-0.083,1.081     c-0.057,0.754-0.126,1.504-0.213,2.25c-0.05,0.425-0.104,0.847-0.162,1.269c-0.094,0.679-0.204,1.353-0.321,2.026     c-0.078,0.441-0.149,0.883-0.237,1.32c-0.133,0.668-0.289,1.33-0.445,1.992c-0.219,0.924-0.459,1.839-0.722,2.746     c-0.116,0.405-0.226,0.812-0.351,1.214c-0.214,0.682-0.448,1.356-0.688,2.028c-0.097,0.276-0.195,0.552-0.296,0.826     c-0.275,0.736-0.562,1.467-0.865,2.189c-0.05,0.119-0.102,0.236-0.153,0.356c-2.905,6.777-7.069,12.891-12.202,18.041     C296.811,205.369,296.769,205.414,296.725,205.457z M489.757,266c-2.679,2.646-6.527,3.987-11.438,3.987     c-6.22,0-11.712-2.14-11.737-2.15c-0.183-0.074-0.37-0.142-0.557-0.203l-157.808-50.759     c11.088-11.044,18.357-25.299,20.765-40.83c0.011-0.069,0.025-0.136,0.036-0.205c0.153-1.004,0.274-2.016,0.386-3.03     c0.026-0.23,0.063-0.457,0.085-0.687c0.095-0.94,0.157-1.885,0.217-2.833c0.019-0.303,0.052-0.602,0.068-0.907     c0.063-1.248,0.096-2.503,0.096-3.762c0-1.303-0.037-2.599-0.104-3.886c-0.004-0.083-0.014-0.164-0.019-0.247     c-0.65-11.726-4.059-22.724-9.569-32.374c-0.054-0.095-0.109-0.189-0.163-0.284c-0.542-0.941-1.105-1.868-1.687-2.782     c-0.128-0.203-0.258-0.404-0.388-0.605c-0.512-0.786-1.038-1.562-1.579-2.327c-0.213-0.303-0.427-0.606-0.645-0.906     c-0.465-0.638-0.942-1.266-1.427-1.888c-0.308-0.397-0.616-0.794-0.931-1.185c-0.401-0.494-0.814-0.977-1.227-1.46     c-0.414-0.486-0.827-0.971-1.254-1.447c-0.314-0.348-0.638-0.686-0.958-1.028c-0.538-0.576-1.076-1.152-1.632-1.712     c-0.17-0.171-0.348-0.334-0.52-0.503c-0.613-0.605-1.222-1.214-1.858-1.798l160.117-51.499c0.189-0.06,0.375-0.127,0.557-0.203     c0.054-0.021,5.49-2.151,11.739-2.151c4.788,0,17.51,0,17.51,25.404v162.837h0C495.83,254.669,493.73,262.076,489.757,266z" fill="#FFFFFF"/>
		</g>
	</g>
</g>
<g>
</g>
<g>
</g>
<g>
</g>
<g>
</g>
<g>
</g>
<g>
</g>
<g>
</g>
<g>
</g>
<g>
</g>
<g>
</g>
<g>
</g>
<g>
</g>
<g>
</g>
<g>
</g>
<g>
</g>
</svg>
