<?xml version="1.0" encoding="utf-8"?>
<!-- Generator: Adobe Illustrator 21.0.0, SVG Export Plug-In . SVG Version: 6.00 Build 0)  -->
<svg version="1.1" id="Capa_1" xmlns="http://www.w3.org/2000/svg" xmlns:xlink="http://www.w3.org/1999/xlink" x="0px" y="0px"
	 viewBox="0 0 512 522" style="enable-background:new 0 0 512 522;" xml:space="preserve">
<style type="text/css">
	.st0{fill:#FFFFFF;}
</style>
<g>
	<path class="st0" d="M497,69.7c-9.2-3.9-19.4-2.1-26.5,4.7l-102.2,94.3V90.3c0-24.5-19.9-44.4-44.4-44.4H44.4
		C19.9,45.9,0,65.9,0,90.3v209c0,23.7,19.3,43,43,43h132.7l-60.7,131c-2.1,4.5-0.1,9.8,4.4,11.9c1.2,0.6,2.5,0.8,3.8,0.8
		c3.4,0,6.6-1.9,8.2-5.2l58.5-126.1l58.5,126.1c1.5,3.3,4.8,5.2,8.1,5.2c1.3,0,2.6-0.3,3.8-0.8c4.5-2.1,6.5-7.4,4.4-11.9l-60.7-131
		h117.9c25.6,0,46.5-20.8,46.5-46.5V224L470,321.2c4.8,4.8,10.9,7.3,17.2,7.3c3.2,0,6.4-0.6,9.5-1.9c9.3-3.8,15.3-12.8,15.3-23V92.5
		C512,82.4,506.3,73.6,497,69.7z M350.3,295.9c0,15.7-12.8,28.5-28.5,28.5H190.1c0,0,0,0-0.1,0h-0.5h-0.1H43
		c-13.8,0-25.1-11.2-25.1-25.1v-209c0-14.6,11.9-26.4,26.4-26.4h279.5c14.6,0,26.4,11.9,26.4,26.4v205.6H350.3z M494,303.6
		c0,4.3-3.2,5.9-4.2,6.3c-1.2,0.5-4.4,1.4-7.2-1.5L370.3,201.1c-1.3-1.3-2-3.1-2-5s0.8-3.6,2-4.8L482.8,87.5
		c1.5-1.4,3.1-1.9,4.4-1.9c1.2,0,2.1,0.3,2.7,0.6c1,0.4,4.1,2.1,4.1,6.3V303.6z"/>
	<path class="st0" d="M162.9,187.2c4.9-8.5,7.8-18.4,7.8-29c0-32.2-26.2-58.4-58.4-58.4S53.9,126,53.9,158.2s26.2,58.4,58.4,58.4
		c15.2,0,28.9-5.8,39.3-15.4l12.7,12.7c1.8,1.8,4.1,2.6,6.4,2.6s4.6-0.9,6.4-2.6c3.5-3.5,3.5-9.2,0-12.7L162.9,187.2z M112.3,198.6
		c-22.3,0-40.4-18.1-40.4-40.4s18.1-40.4,40.4-40.4s40.4,18.1,40.4,40.4c0,5.5-1.1,10.8-3.1,15.6l-17.5-17.5
		c-3.5-3.5-9.2-3.5-12.7,0s-3.5,9.2,0,12.7l19.4,19.4C131.7,194.7,122.5,198.6,112.3,198.6z"/>
</g>
</svg>
