<?xml version="1.0" encoding="utf-8"?>
<!-- Generator: Adobe Illustrator 21.0.0, SVG Export Plug-In . SVG Version: 6.00 Build 0)  -->
<svg version="1.1" id="Layer_1" xmlns="http://www.w3.org/2000/svg" xmlns:xlink="http://www.w3.org/1999/xlink" x="0px" y="0px"
	 viewBox="0 0 512 823" style="enable-background:new 0 0 512 823;" xml:space="preserve">
<g>
	<g>
		<path d="M466.7,660.5c4.3,0,7.8-3.5,7.8-7.8V329.3c0-10.1-8.2-18.3-18.3-18.3H111.5c-10.1,0-18.3,8.2-18.3,18.3v38.6H55.7
			c-10.1,0-18.3,8.2-18.3,18.3v311c0,7.8,4.2,17.9,9.7,23.4l39,39c1.5,1.5,3.5,2.3,5.5,2.3s4-0.8,5.5-2.3c3.1-3.1,3.1-8,0-11.1
			l-33-33h78c1.4,0,2.6,1.2,2.6,2.6v78.1l-19.5-19.5c-3.1-3.1-8-3.1-11.1,0s-3.1,8,0,11.1l25.5,25.5c5.5,5.5,15.6,9.7,23.4,9.7
			h237.4c10.1,0,18.3-8.2,18.3-18.3v-38.6h37.5c10.1,0,18.3-8.2,18.3-18.3v-53.3c0-4.3-3.5-7.8-7.8-7.8s-7.8,3.5-7.8,7.8v53.3
			c0,1.4-1.2,2.6-2.6,2.6h-37.5V448.9c0-4.3-3.5-7.8-7.8-7.8s-7.8,3.5-7.8,7.8v355.8c0,1.4-1.2,2.6-2.6,2.6H163.1
			c-0.8,0-1.7-0.1-2.6-0.3v-88.9c0-10.1-8.2-18.3-18.3-18.3H53.4c-0.2-0.9-0.3-1.8-0.3-2.6v-311c0-1.4,1.2-2.6,2.6-2.6h344.8
			c1.4,0,2.6,1.2,2.6,2.6v25.1c0,4.3,3.5,7.8,7.8,7.8s7.8-3.5,7.8-7.8v-25.1c0-10.1-8.2-18.3-18.3-18.3H108.9v-38.6
			c0-1.4,1.2-2.6,2.6-2.6h344.8c1.4,0,2.6,1.2,2.6,2.6v323.4C458.9,657,462.4,660.5,466.7,660.5z"/>
	</g>
</g>
<g>
	<g>
		<path d="M324.7,453.6H142.3c-4.3,0-7.8,3.5-7.8,7.8s3.5,7.8,7.8,7.8h182.4c4.3,0,7.8-3.5,7.8-7.8
			C332.6,457.1,329.1,453.6,324.7,453.6z"/>
	</g>
</g>
<g>
	<g>
		<path d="M324.7,503.8H142.3c-4.3,0-7.8,3.5-7.8,7.8s3.5,7.8,7.8,7.8h182.4c4.3,0,7.8-3.5,7.8-7.8S329.1,503.8,324.7,503.8z"/>
	</g>
</g>
<g>
	<g>
		<path d="M324.7,553.9H142.3c-4.3,0-7.8,3.5-7.8,7.8s3.5,7.8,7.8,7.8h182.4c4.3,0,7.8-3.5,7.8-7.8S329.1,553.9,324.7,553.9z"/>
	</g>
</g>
<g>
	<g>
		<path d="M324.7,604.1H142.3c-4.3,0-7.8,3.5-7.8,7.8s3.5,7.8,7.8,7.8h182.4c4.3,0,7.8-3.5,7.8-7.8
			C332.6,607.6,329.1,604.1,324.7,604.1z"/>
	</g>
</g>
<g>
	<g>
		<path d="M324.7,654.2H142.3c-4.3,0-7.8,3.5-7.8,7.8s3.5,7.8,7.8,7.8h182.4c4.3,0,7.8-3.5,7.8-7.8S329.1,654.2,324.7,654.2z"/>
	</g>
</g>
<g>
	<g>
		<path d="M324.7,704.4h-112c-4.3,0-7.8,3.5-7.8,7.8s3.5,7.8,7.8,7.8h112.1c4.3,0,7.8-3.5,7.8-7.8
			C332.6,707.9,329.1,704.4,324.7,704.4z"/>
	</g>
</g>
<rect x="252.6" y="293.5" width="6.2" height="33"/>
<rect x="252.6" y="252.5" width="6.2" height="33"/>
<rect x="252.6" y="211.5" width="6.2" height="33"/>
<rect x="252.6" y="170.5" width="6.2" height="33"/>
<rect x="252.6" y="129.5" width="6.2" height="33"/>
<rect x="252.9" y="88.5" width="6.2" height="33"/>
<rect x="253.2" y="47.5" width="6.2" height="33"/>
<rect x="253.5" y="6.5" width="6.2" height="33"/>
</svg>
