<?xml version="1.0" encoding="utf-8"?>
<!-- Generator: Adobe Illustrator 21.0.0, SVG Export Plug-In . SVG Version: 6.00 Build 0)  -->
<svg version="1.1" id="Capa_1" xmlns="http://www.w3.org/2000/svg" xmlns:xlink="http://www.w3.org/1999/xlink" x="0px" y="0px"
	 viewBox="0 0 512 837" style="enable-background:new 0 0 512 837;" xml:space="preserve">
<style type="text/css">
	.st0{fill:#FFFFFF;}
</style>
<g>
	<path class="st0" d="M482.3,413.3H29.7C13.3,413.3,0,426.6,0,443v311.3C0,770.7,13.3,784,29.7,784h452.5
		c16.4,0,29.7-13.3,29.7-29.7V443C512,426.6,498.7,413.3,482.3,413.3z M494.3,754.3c0,6.7-5.4,12.1-12.1,12.1H29.7
		c-6.7,0-12.1-5.4-12.1-12.1V443c0-6.7,5.4-12.1,12.1-12.1h452.5c6.7,0,12.1,5.4,12.1,12.1L494.3,754.3L494.3,754.3z"/>
	<path class="st0" d="M264.8,448.6c-82.7,0-150.1,67.3-150.1,150.1S182,748.8,264.8,748.8s150.1-67.3,150.1-150.1
		S347.6,448.6,264.8,448.6z M264.8,731.1c-73,0-132.4-59.4-132.4-132.4s59.4-132.4,132.4-132.4s132.4,59.4,132.4,132.4
		S337.8,731.1,264.8,731.1z"/>
	<path class="st0" d="M176.6,395.6h167.7c4.9,0,8.8-3.9,8.8-8.8s-3.9-8.8-8.8-8.8H176.6c-4.9,0-8.8,3.9-8.8,8.8
		S171.7,395.6,176.6,395.6z"/>
</g>
<rect x="255.6" y="342.4" class="st0" width="6.2" height="33"/>
<rect x="255.6" y="301.4" class="st0" width="6.2" height="33"/>
<rect x="255.6" y="260.4" class="st0" width="6.2" height="33"/>
<rect x="255.6" y="219.4" class="st0" width="6.2" height="33"/>
<rect x="255.6" y="178.4" class="st0" width="6.2" height="33"/>
<rect x="255.6" y="137.4" class="st0" width="6.2" height="33"/>
<rect x="255.6" y="96.4" class="st0" width="6.2" height="33"/>
<rect x="255.6" y="55.4" class="st0" width="6.2" height="33"/>
</svg>
