<?xml version="1.0" encoding="utf-8"?>
<!-- Generator: Adobe Illustrator 21.0.0, SVG Export Plug-In . SVG Version: 6.00 Build 0)  -->
<svg version="1.1" id="Capa_1" xmlns="http://www.w3.org/2000/svg" xmlns:xlink="http://www.w3.org/1999/xlink" x="0px" y="0px"
	 viewBox="0 0 512 504" style="enable-background:new 0 0 512 504;" xml:space="preserve">
<g>
	<path d="M482.3,80.3H29.7C13.3,80.3,0,93.6,0,110v311.3C0,437.7,13.3,451,29.7,451h452.5c16.4,0,29.7-13.3,29.7-29.7V110
		C512,93.6,498.7,80.3,482.3,80.3z M494.3,421.3c0,6.7-5.4,12.1-12.1,12.1H29.7c-6.7,0-12.1-5.4-12.1-12.1V110
		c0-6.7,5.4-12.1,12.1-12.1h452.5c6.7,0,12.1,5.4,12.1,12.1L494.3,421.3L494.3,421.3z"/>
	<path d="M264.8,115.6c-82.7,0-150.1,67.3-150.1,150.1S182,415.8,264.8,415.8s150.1-67.3,150.1-150.1S347.6,115.6,264.8,115.6z
		 M264.8,398.1c-73,0-132.4-59.4-132.4-132.4s59.4-132.4,132.4-132.4s132.4,59.4,132.4,132.4S337.8,398.1,264.8,398.1z"/>
	<path d="M176.6,62.6h167.7c4.9,0,8.8-3.9,8.8-8.8s-3.9-8.8-8.8-8.8H176.6c-4.9,0-8.8,3.9-8.8,8.8S171.7,62.6,176.6,62.6z"/>
</g>
</svg>
