<?xml version='1.0' encoding='utf-8'?>
<!DOCTYPE svg PUBLIC '-//W3C//DTD SVG 1.1//EN' 'http://www.w3.org/Graphics/SVG/1.1/DTD/svg11.dtd'>
<svg version="1.1" xmlns="http://www.w3.org/2000/svg" viewBox="0 0 512 512" xmlns:xlink="http://www.w3.org/1999/xlink" enable-background="new 0 0 512 512">
  <g>
    <path d="m497.9,342.2l-48.8-64.4-63.3,49.8 13.5,16.6 35-28.6-1.8,18.3c-17.9,80.6-86.4,140.2-166.1,145v-290.4h49.8v-20.8h-49.8v-63.5c20-4.8 35.3-23.2 35.3-45.5 0-26-20.8-46.7-45.7-46.7-24.9,0-45.7,20.8-45.7,46.7 0,22.2 15.3,40.7 35.3,45.5v63.5h-49.8v20.8h49.8v290.4c-79.7-4.8-148.2-64.4-166.1-145l-1.3-17.9 34.5,28.3 13.5-16.6-63.3-49.8-48.8,64.4 16.6,12.5 27.3-35.9 1.7,18.3v1c19.8,93.2 102.9,161.8 196.3,161.8s176.5-68.6 196.2-162l2.2-18.7 26.9,35.3 16.6-12.4zm-266.8-283.4c-2.84217e-14-14.5 11.4-26 24.9-26 13.5,0 24.9,11.4 24.9,26 0,14.5-11.4,26-24.9,26-13.5-0.1-24.9-11.5-24.9-26z"/>
  </g>
</svg>
