<?xml version="1.0" encoding="utf-8"?>
<!-- Generator: Adobe Illustrator 21.0.0, SVG Export Plug-In . SVG Version: 6.00 Build 0)  -->
<svg version="1.1" id="Capa_1" xmlns="http://www.w3.org/2000/svg" xmlns:xlink="http://www.w3.org/1999/xlink" x="0px" y="0px"
	 viewBox="0 0 64 64" style="enable-background:new 0 0 64 64;" xml:space="preserve">
<style type="text/css">
	.st0{fill:#FFFFFF;}
</style>
<g>
	<g>
		<path class="st0" d="M33,64v-7c7-0.3,13.3-3.5,17.7-8.4l7.7,6.2l1.3-1.6L52,47c3.2-4.2,5-9.4,5-15c0-5.5-1.8-10.5-4.7-14.6
			l7.3-5.6l-1.2-1.6L51,15.8C46.6,10.7,40.2,7.3,33,7V0h-2v7c-7,0.3-13.3,3.5-17.7,8.4L5.6,9.2l-1.3,1.6L12,17c-3.2,4.2-5,9.4-5,15
			c0,5.5,1.8,10.5,4.7,14.6l-7.3,5.6l1.2,1.6l7.4-5.6c4.4,5.2,10.8,8.5,18,8.8v7H33z M25,32c0-3.9,3.1-7,7-7s7,3.1,7,7s-3.1,7-7,7
			S25,35.9,25,32z M33,55v-14c2-0.2,3.8-1.1,5.2-2.5l10.9,8.8C45.1,51.8,39.4,54.7,33,55z M55,32c0,5.2-1.7,9.9-4.6,13.8l-10.9-8.8
			c0.9-1.4,1.5-3.1,1.5-4.9c0-1.8-0.5-3.5-1.5-4.9l11.1-8.5C53.4,22.4,55,27,55,32z M49.4,17l-11.2,8.5c-1.4-1.4-3.2-2.3-5.3-2.5V9
			C39.6,9.3,45.4,12.4,49.4,17z M31,9v14c-2,0.2-3.8,1.1-5.2,2.5l-10.9-8.8C18.9,12.2,24.6,9.3,31,9z M9,32c0-5.2,1.7-9.9,4.6-13.8
			l10.9,8.8C23.5,28.5,23,30.2,23,32c0,1.8,0.5,3.5,1.5,4.9l-11.1,8.5C10.6,41.6,9,37,9,32z M14.6,47l11.2-8.5
			c1.4,1.4,3.2,2.3,5.3,2.5v14C24.4,54.7,18.6,51.6,14.6,47z"/>
	</g>
</g>
</svg>
